<svg id="Layer_1" data-name="Layer 1" xmlns="http://www.w3.org/2000/svg" width="15.33" height="17.98" viewBox="0 0 15.33 17.98">
  <path d="M3.2,3.16V14.83H13.57a1.62,1.62,0,0,1,1.51.76A1.56,1.56,0,0,1,13.86,18h-.29c-3.6,0-7.2,0-10.79,0A2.64,2.64,0,0,1,.52,16.92,2.42,2.42,0,0,1,0,15.42V2.55A2.57,2.57,0,0,1,2.52,0C5.68,0,8.83,0,12,0h1.78a1.57,1.57,0,0,1,.12,3.13,3.39,3.39,0,0,1-.45,0H3.2Z" fill="#fff"/>
  <path d="M8.68,10.55c-.56,0-1.12,0-1.68,0a1.57,1.57,0,0,1,0-3.12q1.62,0,3.24,0a1.57,1.57,0,0,1,.06,3.12C9.8,10.57,9.24,10.55,8.68,10.55Z" fill="#fff"/>
</svg>
