<svg width="56" height="68" viewBox="0 0 56 68" fill="none" xmlns="http://www.w3.org/2000/svg">
<path d="M0.664062 38.4613L12.8863 47.3848L20.4413 52.8957L23.3249 43.9805H23.3207L21.3331 42.5205L15.774 38.4621H0.664062V38.4613ZM40.2226 38.4613L37.1366 40.7163L32.6718 43.9805H32.6676L35.5554 52.8957L43.1062 47.3848L55.3368 38.4613H40.2226ZM27.9963 0.666687L23.3257 15.1044L18.6577 29.5345L15.774 38.4613H25.1093L27.9963 29.5429L30.884 38.4613H40.2226L37.3357 29.5345L32.6676 15.1044L27.9971 0.666687H27.9963ZM20.4454 52.8957H20.4413V52.904L15.7741 67.3333L27.9963 58.4107L35.5471 52.8957L27.9963 47.3848L20.4454 52.8957Z" fill="#E24645"/>
</svg>
