<svg width="66" height="12" viewBox="0 0 66 12" fill="none" xmlns="http://www.w3.org/2000/svg">
<path d="M6.98 4.63C7.58 4.63 8.08 5.07 8.08 5.62C8.08 6.17 7.59 6.61 6.98 6.61H4.92C4.31 6.61 3.82 6.17 3.82 5.62C3.82 5.07 4.31 4.63 4.92 4.63H6.98ZM22.91 9.24H16.72L23.59 2.15C24.01 1.72 24.12 1.19 23.89 0.73C23.66 0.27 23.14 0 22.51 0H14.65C14.04 0 13.55 0.440002 13.55 0.990002C13.55 1.54 14.04 1.98 14.65 1.98H20.84L13.97 9.07C13.55 9.5 13.44 10.03 13.67 10.49C13.9 10.95 14.42 11.22 15.05 11.22H22.91C23.52 11.22 24.01 10.78 24.01 10.23C24 9.69 23.51 9.24 22.91 9.24ZM10.53 1C10.53 0.45 10.04 0.00999832 9.43 0.00999832H1.8C0.81 0.00999832 0 0.739999 0 1.64V9.59C0 10.49 0.81 11.22 1.8 11.22H9.43C10.04 11.22 10.53 10.78 10.53 10.23C10.53 9.68 10.04 9.24 9.43 9.24H2.19V1.99H9.43C10.04 1.99 10.53 1.55 10.53 1ZM64.85 9.24H57.61V1.99H64.85C65.45 1.99 65.95 1.55 65.95 1C65.95 0.45 65.46 0.00999832 64.85 0.00999832H57.22C56.23 0.00999832 55.42 0.739999 55.42 1.64V9.59C55.42 10.49 56.23 11.22 57.22 11.22H64.85C65.45 11.22 65.95 10.78 65.95 10.23C65.94 9.69 65.45 9.24 64.85 9.24ZM60.34 4.63C59.73 4.63 59.24 5.07 59.24 5.62C59.24 6.17 59.73 6.61 60.34 6.61H62.39C62.99 6.61 63.49 6.17 63.49 5.62C63.49 5.07 63 4.63 62.39 4.63H60.34ZM38.44 5.62C38.44 8.71 35.65 11.23 32.22 11.23C28.79 11.23 26 8.71 26 5.62C26 2.53 28.79 0.00999832 32.22 0.00999832C35.65 0.00999832 38.44 2.53 38.44 5.62ZM36.25 5.62C36.25 3.62 34.44 1.99 32.22 1.99C30 1.99 28.19 3.62 28.19 5.62C28.19 7.62 30 9.25 32.22 9.25C34.44 9.25 36.25 7.62 36.25 5.62ZM51.22 0.0200005C50.62 0.0200005 50.12 0.459998 50.12 1.01V7.82L43.52 0.57C42.88 -0.13 42.17 0.0300002 41.97 0.0900002C41.77 0.16 41.1 0.44 41.1 1.34V10.24C41.1 10.79 41.59 11.23 42.2 11.23C42.81 11.23 43.3 10.79 43.3 10.24V3.43L49.9 10.69C50.54 11.39 51.25 11.23 51.45 11.16C51.65 11.09 52.32 10.81 52.32 9.91V1.01C52.32 0.459998 51.83 0.0200005 51.22 0.0200005Z" fill="white"/>
</svg>
