<svg width="229" height="607" viewBox="0 0 229 607" fill="none" xmlns="http://www.w3.org/2000/svg">
<path fill-rule="evenodd" clip-rule="evenodd" d="M-315.391 581.7C-322.001 586.765 -322.754 595.731 -317.073 601.755C-311.391 607.78 -301.454 608.554 -294.842 603.49L-230.838 554.453C-224.227 549.389 -223.474 540.423 -229.155 534.398C-234.837 528.375 -244.776 527.599 -251.386 532.664L-315.391 581.7ZM-249.271 534.907C-244.066 530.919 -236.09 531.542 -231.617 536.284C-227.145 541.027 -227.748 548.223 -232.953 552.211L-296.957 601.246C-302.162 605.234 -310.138 604.612 -314.611 599.869C-319.084 595.127 -318.48 587.93 -313.275 583.942L-249.271 534.907ZM-207.259 517.623C-212.941 511.599 -212.188 502.633 -205.577 497.568L-141.573 448.532C-134.962 443.467 -125.023 444.243 -119.342 450.266C-113.662 456.29 -114.413 465.257 -121.025 470.322L-185.029 519.358C-191.64 524.423 -201.579 523.647 -207.259 517.623ZM-121.804 452.153C-126.276 447.41 -134.253 446.788 -139.458 450.775L-203.461 499.811C-208.666 503.799 -209.271 510.995 -204.798 515.737C-200.326 520.48 -192.348 521.102 -187.145 517.115L-123.14 468.078C-117.935 464.091 -117.332 456.895 -121.804 452.153ZM-97.5389 433.563C-103.22 427.538 -102.468 418.572 -95.8571 413.508L-31.8522 364.471C-25.2417 359.407 -15.3029 360.182 -9.62144 366.206C-3.9399 372.23 -4.69272 381.196 -11.3046 386.261L-75.3081 435.297C-81.92 440.362 -91.8574 439.587 -97.5389 433.563ZM-12.0831 368.092C-16.5559 363.349 -24.5324 362.727 -29.7374 366.715L-93.7409 415.751C-98.9459 419.738 -99.55 426.934 -95.0773 431.677C-90.6044 436.419 -82.628 437.042 -77.423 433.054L-13.4194 384.018C-8.21448 380.031 -7.61027 372.834 -12.0831 368.092ZM122.75 264.791C117.068 258.767 117.821 249.801 124.433 244.736L188.436 195.7C195.048 190.635 204.986 191.41 210.667 197.434C216.348 203.459 215.596 212.424 208.985 217.49L144.981 266.525C138.369 271.591 128.431 270.815 122.75 264.791ZM208.206 199.32C203.733 194.578 195.756 193.956 190.552 197.943L126.548 246.979C121.343 250.966 120.739 258.163 125.212 262.905C129.684 267.648 137.661 268.27 142.866 264.282L206.869 215.247C212.074 211.259 212.678 204.063 208.206 199.32ZM14.7112 328.797C8.10068 333.862 7.3479 342.828 13.0294 348.852C18.7096 354.876 28.6484 355.651 35.2602 350.586L99.2637 301.55C105.876 296.485 106.627 287.519 100.947 281.495C95.2654 275.471 85.3266 274.696 78.716 279.761L14.7112 328.797ZM80.8309 282.004C86.0359 278.016 94.0124 278.639 98.4852 283.381C102.957 288.123 102.354 295.32 97.1488 299.307L33.144 348.343C27.9403 352.331 19.9625 351.708 15.491 346.966C11.0183 342.224 11.6224 335.027 16.8274 331.04L80.8309 282.004ZM120.013 101.304C125.693 107.328 124.942 116.295 118.33 121.359L54.3266 170.395C47.7147 175.46 37.7759 174.685 32.0958 168.661C26.4143 162.637 27.1658 153.671 33.7776 148.605L97.7811 99.57C104.393 94.5045 114.332 95.2793 120.013 101.304ZM34.5574 166.775C39.0289 171.517 47.0067 172.14 52.2104 168.152L116.215 119.116C121.419 115.129 122.023 107.933 117.552 103.19C113.079 98.4469 105.102 97.825 99.8973 101.813L35.8925 150.848C30.6888 154.836 30.0847 162.032 34.5574 166.775ZM-101.959 290.131C-95.3481 285.065 -94.5953 276.099 -100.277 270.075C-105.957 264.051 -115.896 263.276 -122.508 268.341L-186.511 317.377C-193.123 322.442 -193.874 331.408 -188.194 337.432C-182.513 343.456 -172.574 344.232 -165.962 339.166L-101.959 290.131ZM-168.078 336.923C-173.283 340.911 -181.26 340.289 -185.733 335.546C-190.204 330.804 -189.6 323.608 -184.396 319.62L-120.391 270.584C-115.188 266.597 -107.21 267.219 -102.738 271.961C-98.2656 276.704 -98.8698 283.9 -104.073 287.888L-168.078 336.923ZM-77.6248 252.722C-83.3062 246.698 -82.5534 237.732 -75.9429 232.667L-11.9394 183.631C-5.32754 178.566 4.61128 179.341 10.2928 185.365C15.9729 191.389 15.2214 200.355 8.60961 205.42L-55.3939 254.456C-62.0057 259.521 -71.9446 258.746 -77.6248 252.722ZM7.83108 187.251C3.3583 182.509 -4.61819 181.886 -9.82317 185.874L-73.828 234.91C-79.0317 238.897 -79.6359 246.094 -75.1631 250.836C-70.6916 255.578 -62.7138 256.201 -57.5101 252.213L6.49473 203.178C11.6997 199.19 12.3026 191.994 7.83108 187.251ZM-296.232 401.438C-302.843 406.503 -303.595 415.469 -297.913 421.493C-292.233 427.517 -282.294 428.292 -275.683 423.228L-211.679 374.191C-205.067 369.127 -204.316 360.161 -209.996 354.136C-215.678 348.113 -225.616 347.337 -232.228 352.402L-296.232 401.438ZM-230.112 354.645C-224.907 350.657 -216.93 351.28 -212.458 356.022C-207.986 360.765 -208.59 367.961 -213.794 371.949L-277.799 420.984C-283.002 424.972 -290.98 424.35 -295.452 419.607C-299.925 414.865 -299.32 407.668 -294.117 403.682L-230.112 354.645ZM138.89 150.868L202.894 101.832C209.505 96.7671 219.444 97.5419 225.125 103.566C230.805 109.591 230.053 118.556 223.442 123.622L159.438 172.657C152.827 177.723 142.888 176.947 137.208 170.923C131.526 164.899 132.278 155.933 138.89 150.868ZM157.323 170.414L221.327 121.379C226.531 117.391 227.135 110.195 222.663 105.452C218.191 100.71 210.214 100.088 205.009 104.075L141.004 153.111C135.801 157.098 135.197 164.295 139.669 169.037C144.141 173.779 152.118 174.402 157.323 170.414ZM-126.491 352.666L-190.494 401.701C-197.105 406.767 -197.858 415.733 -192.176 421.756C-186.496 427.781 -176.557 428.557 -169.945 423.491L-105.942 374.456C-99.3299 369.39 -98.5784 360.424 -104.259 354.4C-109.94 348.376 -119.879 347.601 -126.491 352.666ZM-108.057 372.212L-172.062 421.249C-177.265 425.235 -185.243 424.613 -189.714 419.871C-194.187 415.129 -193.583 407.932 -188.378 403.945L-124.374 354.909C-119.17 350.921 -111.193 351.544 -106.72 356.286C-102.249 361.028 -102.852 368.224 -108.057 372.212ZM29.1677 234.929L93.1712 185.894C99.7831 180.828 109.722 181.604 115.403 187.628C121.084 193.652 120.332 202.618 113.72 207.683L49.7167 256.719C43.1049 261.784 33.1661 261.009 27.4859 254.985C21.8044 248.961 22.5572 239.995 29.1677 234.929ZM47.6005 254.476L111.605 205.44C116.809 201.453 117.413 194.256 112.942 189.514C108.469 184.771 100.492 184.149 95.2874 188.137L31.2826 237.172C26.0789 241.16 25.4748 248.356 29.9476 253.099C34.4191 257.841 42.3969 258.463 47.6005 254.476ZM-234.155 436.671L-298.159 485.707C-304.771 490.773 -305.523 499.737 -299.842 505.762C-294.16 511.787 -284.223 512.561 -277.611 507.497L-213.608 458.46C-206.996 453.396 -206.243 444.43 -211.924 438.405C-217.606 432.381 -227.543 431.606 -234.155 436.671ZM-215.722 456.218L-279.726 505.253C-284.931 509.241 -292.908 508.619 -297.38 503.876C-301.853 499.133 -301.249 491.937 -296.044 487.95L-232.04 438.914C-226.835 434.926 -218.859 435.549 -214.386 440.291C-209.913 445.034 -210.517 452.23 -215.722 456.218ZM-79.85 318.452L-15.8452 269.416C-9.23463 264.351 0.70417 265.126 6.38564 271.15C12.0671 277.175 11.3143 286.141 4.70248 291.206L-59.301 340.241C-65.9129 345.307 -75.8504 344.531 -81.5318 338.507C-87.2133 332.483 -86.4605 323.517 -79.85 318.452ZM-61.4159 337.998L2.58762 288.963C7.7926 284.975 8.39677 277.779 3.92397 273.036C-0.548832 268.294 -8.52533 267.672 -13.7303 271.659L-77.7338 320.695C-82.9388 324.683 -83.543 331.879 -79.0702 336.621C-74.5974 341.364 -66.6209 341.986 -61.4159 337.998ZM-36.3288 74.2645L27.676 25.2291C34.2866 20.1634 35.0394 11.1973 29.3579 5.17392C23.6777 -0.850628 13.7389 -1.62543 7.12708 3.43896L-56.8765 52.4756C-63.4883 57.5401 -64.2398 66.5062 -58.5596 72.5307C-52.8781 78.5542 -42.9393 79.3302 -36.3288 74.2645ZM-54.7616 54.7183L9.24321 5.68291C14.4482 1.69519 22.4247 2.31704 26.8962 7.05985C31.369 11.8016 30.7648 18.9986 25.5612 22.9853L-38.4437 72.0218C-43.6487 76.0096 -51.6251 75.3865 -56.098 70.6447C-60.5694 65.9019 -59.9653 58.7061 -54.7616 54.7183ZM-82.0445 109.29L-146.049 158.326C-152.66 163.391 -162.599 162.616 -168.28 156.592C-173.96 150.568 -173.209 141.602 -166.597 136.537L-102.593 87.5011C-95.9816 82.4355 -86.0428 83.2103 -80.3626 89.2348C-74.6812 95.2594 -75.4339 104.224 -82.0445 109.29ZM-100.477 89.7438L-164.482 138.779C-169.687 142.767 -170.29 149.963 -165.818 154.706C-161.346 159.448 -153.369 160.07 -148.164 156.083L-84.1607 107.047C-78.9557 103.06 -78.3515 95.8637 -82.8243 91.1208C-87.2958 86.378 -95.2736 85.756 -100.477 89.7438ZM-256.525 242.965L-192.521 193.929C-185.909 188.864 -185.157 179.899 -190.838 173.874C-196.52 167.85 -206.457 167.075 -213.069 172.14L-277.072 221.176C-283.684 226.241 -284.437 235.207 -278.755 241.231C-273.074 247.255 -263.136 248.031 -256.525 242.965ZM-274.957 223.419L-210.954 174.383C-205.749 170.396 -197.772 171.018 -193.3 175.76C-188.827 180.503 -189.431 187.699 -194.636 191.686L-258.64 240.722C-263.844 244.71 -271.821 244.088 -276.294 239.345C-280.767 234.603 -280.162 227.407 -274.957 223.419ZM48.2342 54.737L112.239 5.70158C118.85 0.635922 128.788 1.41194 134.47 7.43537C140.15 13.4599 139.399 22.426 132.787 27.4916L68.7831 76.5271C62.1714 81.5915 52.2325 80.8167 46.5524 74.7922C40.8709 68.7688 41.6237 59.8027 48.2342 54.737ZM66.6682 74.2844L130.672 25.2478C135.877 21.2601 136.48 14.0642 132.008 9.32137C127.535 4.57961 119.559 3.9577 114.354 7.94426L50.3503 56.9809C45.1454 60.9675 44.5412 68.1645 49.0141 72.9062C53.4855 77.6491 61.4633 78.271 66.6682 74.2844ZM2.51848 89.7637L-61.4863 138.799C-68.0969 143.864 -68.8497 152.83 -63.1682 158.854C-57.4867 164.879 -47.5492 165.654 -40.9374 160.588L23.0662 111.553C29.6781 106.487 30.4295 97.522 24.7493 91.4975C19.0679 85.4728 9.12903 84.698 2.51848 89.7637ZM20.9513 109.31L-43.0522 158.345C-48.2572 162.333 -56.2337 161.711 -60.7065 156.968C-65.1793 152.226 -64.5751 145.03 -59.3701 141.042L4.63337 92.0064C9.83838 88.0186 17.8149 88.6405 22.2876 93.3835C26.7591 98.1263 26.1563 105.322 20.9513 109.31ZM-84.2684 175.02C-78.5883 181.044 -79.3398 190.01 -85.9516 195.075L-149.955 244.111C-156.567 249.176 -166.506 248.401 -172.186 242.377C-177.867 236.353 -177.115 227.387 -170.504 222.321L-106.501 173.286C-99.8887 168.221 -89.9499 168.996 -84.2684 175.02ZM-169.724 240.491C-165.253 245.233 -157.275 245.856 -152.07 241.868L-88.0664 192.832C-82.8615 188.845 -82.2586 181.648 -86.7301 176.906C-91.2029 172.164 -99.1794 171.541 -104.384 175.529L-168.389 224.564C-173.593 228.552 -174.197 235.748 -169.724 240.491ZM-195.765 279.207C-189.153 274.142 -188.4 265.176 -194.082 259.152C-199.763 253.128 -209.702 252.352 -216.313 257.417L-280.316 306.453C-286.928 311.519 -287.681 320.484 -281.999 326.509C-276.318 332.533 -266.379 333.308 -259.769 328.243L-195.765 279.207ZM-261.883 326C-267.088 329.987 -275.065 329.365 -279.538 324.623C-284.01 319.88 -283.406 312.684 -278.201 308.696L-214.198 259.661C-208.993 255.673 -201.016 256.295 -196.543 261.038C-192.071 265.78 -192.675 272.977 -197.88 276.964L-261.883 326Z" fill="#292744"/>
</svg>
