<svg width="268" height="217" viewBox="0 0 268 217" fill="none" xmlns="http://www.w3.org/2000/svg">
<path fill-rule="evenodd" clip-rule="evenodd" d="M603.987 -314.284C611.224 -318.405 613.188 -327.186 608.377 -333.925C603.566 -340.665 593.826 -342.783 586.588 -338.663L516.517 -298.773C509.279 -294.654 507.315 -285.873 512.126 -279.133C516.937 -272.393 526.678 -270.275 533.915 -274.396L603.987 -314.284ZM532.125 -276.905C526.426 -273.661 518.608 -275.362 514.821 -280.667C511.035 -285.973 512.61 -293.02 518.308 -296.264L588.378 -336.153C594.077 -339.397 601.895 -337.697 605.682 -332.391C609.469 -327.085 607.893 -320.037 602.195 -316.793L532.125 -276.905ZM488.155 -265.487C492.965 -258.747 491.002 -249.967 483.765 -245.846L413.693 -205.958C406.456 -201.837 396.714 -203.955 391.904 -210.695C387.094 -217.435 389.057 -226.216 396.295 -230.336L466.365 -270.225C473.604 -274.345 483.345 -272.227 488.155 -265.487ZM394.599 -212.23C398.386 -206.923 406.204 -205.224 411.902 -208.467L481.973 -248.356C487.671 -251.6 489.247 -258.647 485.46 -263.953C481.674 -269.259 473.854 -270.958 468.157 -267.715L398.086 -227.826C392.387 -224.582 390.813 -217.535 394.599 -212.23ZM368.034 -197.108C372.845 -190.367 370.881 -181.586 363.644 -177.467L293.572 -137.577C286.335 -133.457 276.594 -135.575 271.783 -142.315C266.973 -149.055 268.936 -157.835 276.175 -161.956L346.245 -201.845C353.483 -205.965 363.223 -203.847 368.034 -197.108ZM274.478 -143.85C278.266 -138.543 286.084 -136.844 291.782 -140.088L361.852 -179.976C367.551 -183.22 369.126 -190.267 365.339 -195.573C361.552 -200.879 353.734 -202.579 348.036 -199.335L277.965 -159.446C272.267 -156.203 270.691 -149.155 274.478 -143.85ZM126.865 -59.8182C131.676 -53.0781 129.712 -44.2975 122.474 -40.1772L52.4035 -0.28838C45.1654 3.83191 35.4242 1.71402 30.6141 -5.02584C25.8038 -11.7658 27.7668 -20.5465 35.0048 -24.6668L105.075 -64.5556C112.314 -68.6758 122.054 -66.5581 126.865 -59.8182ZM33.3091 -6.56C37.0958 -1.25412 44.9144 0.445766 50.6124 -2.79793L120.683 -42.6867C126.381 -45.9303 127.957 -52.9779 124.17 -58.2839C120.383 -63.5899 112.565 -65.2898 106.866 -62.046L36.7958 -22.1572C31.0977 -18.9136 29.5222 -11.8659 33.3091 -6.56ZM242.595 -108.557C249.833 -112.678 251.796 -121.458 246.985 -128.198C242.176 -134.938 232.435 -137.056 225.196 -132.936L155.126 -93.0469C147.887 -88.9265 145.925 -80.1457 150.734 -73.406C155.545 -66.6661 165.287 -64.5482 172.524 -68.6686L242.595 -108.557ZM170.733 -71.1781C165.035 -67.9344 157.217 -69.6342 153.429 -74.9402C149.644 -80.2459 151.218 -87.2938 156.916 -90.5374L226.988 -130.426C232.685 -133.67 240.504 -131.97 244.29 -126.664C248.078 -121.358 246.502 -114.311 240.803 -111.067L170.733 -71.1781ZM107.372 102.526C102.563 95.7859 104.525 87.0049 111.763 82.8854L181.834 42.9963C189.072 38.876 198.814 40.9941 203.623 47.7338C208.434 54.4738 206.471 63.2547 199.233 67.3749L129.163 107.263C121.924 111.384 112.183 109.267 107.372 102.526ZM200.928 49.268C197.142 43.9623 189.323 42.2622 183.626 45.5061L113.554 85.3945C107.857 88.6386 106.281 95.6858 110.067 100.992C113.854 106.298 121.672 107.998 127.371 104.754L197.442 64.8654C203.139 61.6215 204.715 54.574 200.928 49.268ZM352.933 -54.4039C345.696 -50.2833 343.732 -41.5028 348.543 -34.7628C353.352 -28.023 363.093 -25.905 370.332 -30.0254L440.402 -69.9142C447.641 -74.0344 449.603 -82.8152 444.794 -89.555C439.983 -96.2949 430.242 -98.413 423.003 -94.2927L352.933 -54.4039ZM424.795 -91.7829C430.493 -95.0266 438.311 -93.3268 442.099 -88.0208C445.885 -82.7151 444.309 -75.6675 438.612 -72.4236L368.54 -32.5351C362.843 -29.2912 355.024 -30.9913 351.238 -36.297C347.45 -41.603 349.026 -48.6506 354.723 -51.8945L424.795 -91.7829ZM323.744 -20.6468C328.554 -13.9068 326.591 -5.12625 319.354 -1.00567L249.283 38.8831C242.045 43.0033 232.303 40.8854 227.493 34.1453C222.683 27.4056 224.646 18.6248 231.884 14.5045L301.954 -25.3843C309.193 -29.5045 318.934 -27.3865 323.744 -20.6468ZM230.188 32.6112C233.975 37.9171 241.793 39.617 247.491 36.3734L317.563 -3.51513C323.26 -6.75905 324.836 -13.8066 321.049 -19.1126C317.263 -24.4183 309.443 -26.1185 303.746 -22.8745L233.675 17.014C227.976 20.2576 226.402 27.3055 230.188 32.6112ZM560.523 -138.294C567.761 -142.415 569.724 -151.196 564.913 -157.935C560.104 -164.675 550.362 -166.793 543.124 -162.673L473.053 -122.784C465.815 -118.664 463.853 -109.883 468.662 -103.143C473.473 -96.4039 483.214 -94.2852 490.453 -98.4059L560.523 -138.294ZM488.661 -100.915C482.962 -97.6714 475.144 -99.372 471.357 -104.677C467.571 -109.983 469.147 -117.031 474.844 -120.275L544.915 -160.163C550.613 -163.407 558.432 -161.707 562.218 -156.401C566.005 -151.096 564.429 -144.048 558.732 -140.805L488.661 -100.915ZM95.4021 50.8577L25.3312 90.7469C18.0934 94.8665 8.35214 92.7491 3.54196 86.0087C-1.26809 79.2684 0.694572 70.4887 7.93278 66.3679L78.0033 26.4793C85.2414 22.3589 94.9829 24.4769 99.7922 31.2166C104.603 37.9566 102.641 46.7374 95.4021 50.8577ZM79.7943 28.9888L9.72389 68.8771C4.02577 72.1211 2.45032 79.1683 6.23696 84.4746C10.0236 89.7809 17.8423 91.4805 23.5404 88.2366L93.6115 48.3483C99.3085 45.1044 100.884 38.0568 97.0972 32.7508C93.3112 27.4452 85.4924 25.7452 79.7943 28.9888ZM385.731 -113.028L455.801 -152.916C463.038 -157.037 465.002 -165.818 460.191 -172.557C455.382 -179.297 445.64 -181.416 438.402 -177.295L368.332 -137.407C361.093 -133.286 359.131 -124.505 363.94 -117.765C368.751 -111.026 378.492 -108.908 385.731 -113.028ZM370.122 -134.897L440.194 -174.786C445.891 -178.029 453.71 -176.329 457.496 -171.023C461.283 -165.718 459.707 -158.669 454.009 -155.427L383.939 -115.537C378.24 -112.294 370.422 -113.994 366.635 -119.299C362.849 -124.605 364.424 -131.653 370.122 -134.897ZM215.524 -17.523L145.454 22.3657C138.215 26.4861 128.474 24.3681 123.663 17.628C118.854 10.8883 120.816 2.10752 128.055 -2.0128L198.125 -41.9015C205.363 -46.0218 215.105 -43.9039 219.914 -37.1641C224.725 -30.4241 222.761 -21.6436 215.524 -17.523ZM199.917 -39.3918L129.845 0.496633C124.148 3.74055 122.572 10.7881 126.358 16.0938C130.146 21.3998 137.964 23.0996 143.662 19.856L213.734 -20.0325C219.431 -23.2764 221.006 -30.3239 217.219 -35.6299C213.433 -40.9357 205.614 -42.6358 199.917 -39.3918ZM503.807 -181.633L573.877 -221.521C581.116 -225.642 583.079 -234.421 578.268 -241.162C573.458 -247.902 563.718 -250.019 556.479 -245.9L486.409 -206.01C479.171 -201.891 477.207 -193.11 482.018 -186.37C486.828 -179.629 496.568 -177.512 503.807 -181.633ZM488.2 -203.501L558.27 -243.39C563.968 -246.633 571.786 -244.934 575.573 -239.628C579.361 -234.321 577.785 -227.274 572.086 -224.03L502.016 -184.142C496.318 -180.898 488.5 -182.598 484.713 -187.904C480.925 -193.21 482.501 -200.257 488.2 -203.501ZM334.875 -85.4654L264.804 -45.5769C257.567 -41.4563 247.825 -43.5743 243.015 -50.3143C238.204 -57.0544 240.167 -65.8349 247.406 -69.9551L317.476 -109.844C324.715 -113.964 334.455 -111.846 339.265 -105.106C344.076 -98.3665 342.113 -89.5859 334.875 -85.4654ZM319.267 -107.334L249.197 -67.4457C243.498 -64.202 241.922 -57.1545 245.71 -51.8485C249.497 -46.5425 257.315 -44.8427 263.013 -48.0864L333.083 -87.9751C338.782 -91.2188 340.358 -98.2663 336.57 -103.572C332.783 -108.878 324.965 -110.578 319.267 -107.334ZM258.593 150.549L188.522 190.437C181.284 194.558 179.321 203.338 184.132 210.078C188.941 216.818 198.682 218.935 205.921 214.816L275.991 174.926C283.229 170.807 285.192 162.026 280.382 155.286C275.572 148.546 265.83 146.428 258.593 150.549ZM274.2 172.417L204.129 212.305C198.431 215.549 190.612 213.85 186.827 208.544C183.039 203.238 184.615 196.19 190.312 192.947L260.384 153.058C266.082 149.814 273.9 151.514 277.687 156.82C281.473 162.126 279.897 169.173 274.2 172.417ZM308.642 122.056L378.714 82.168C385.951 78.0473 395.692 80.1653 400.503 86.9052C405.312 93.6449 403.35 102.426 396.112 106.546L326.041 146.434C318.803 150.555 309.061 148.438 304.252 141.697C299.442 134.957 301.405 126.177 308.642 122.056ZM324.25 143.925L394.321 104.037C400.019 100.793 401.594 93.7451 397.808 88.4394C394.021 83.1336 386.203 81.4338 380.504 84.6774L310.434 124.566C304.736 127.81 303.16 134.857 306.947 140.163C310.733 145.469 318.552 147.169 324.25 143.925ZM499.661 13.3169L429.59 53.2057C422.352 57.3259 420.389 66.1064 425.199 72.8464C430.01 79.5863 439.75 81.704 446.989 77.5837L517.059 37.6949C524.297 33.5747 526.261 24.7941 521.45 18.0542C516.639 11.3142 506.899 9.19658 499.661 13.3169ZM515.268 35.1855L445.198 75.0742C439.5 78.3178 431.681 76.6182 427.894 71.3122C424.107 66.0062 425.683 58.9588 431.381 55.7151L501.451 15.8263C507.15 12.5827 514.968 14.2824 518.755 19.5884C522.542 24.8944 520.966 31.9419 515.268 35.1855ZM172.161 158.41L102.09 198.298C94.8527 202.419 85.1114 200.301 80.3006 193.561C75.4913 186.821 77.4536 178.04 84.6922 173.92L154.762 134.031C162.001 129.912 171.742 132.029 176.552 138.769C181.362 145.509 179.399 154.289 172.161 158.41ZM156.553 136.54L86.4826 176.43C80.7843 179.674 79.2097 186.721 82.9956 192.027C86.783 197.333 94.6011 199.032 100.299 195.789L170.37 155.9C176.068 152.657 177.644 145.609 173.857 140.303C170.071 134.997 162.251 133.298 156.553 136.54ZM222.211 129.917L292.282 90.0289C299.52 85.9083 301.483 77.1277 296.672 70.3878C291.862 63.6477 282.122 61.53 274.883 65.6504L204.813 105.539C197.574 109.66 195.612 118.44 200.421 125.18C205.232 131.92 214.973 134.038 222.211 129.917ZM206.603 108.048L276.674 68.1598C282.372 64.9162 290.19 66.616 293.977 71.922C297.765 77.2279 296.189 84.2755 290.49 87.5192L220.42 127.408C214.722 130.652 206.904 128.952 203.116 123.646C199.331 118.34 200.905 111.292 206.603 108.048ZM319.773 57.2375C314.963 50.4977 316.926 41.7169 324.164 37.5965L394.234 -2.29217C401.473 -6.41238 411.214 -4.29443 416.024 2.44535C420.834 9.18542 418.871 17.966 411.634 22.0865L341.563 61.9753C334.325 66.0955 324.583 63.9776 319.773 57.2375ZM413.329 3.97952C409.543 -1.32619 401.723 -3.02625 396.025 0.217262L325.955 40.1062C320.256 43.3497 318.682 50.3975 322.468 55.7033C326.255 61.0093 334.073 62.7092 339.771 59.4656L409.843 19.577C415.54 16.3331 417.116 9.28557 413.329 3.97952ZM444.386 -30.8413C437.148 -26.721 435.184 -17.9404 439.995 -11.2003C444.806 -4.46026 454.547 -2.3422 461.784 -6.4628L531.854 -46.3516C539.093 -50.4719 541.057 -59.2525 536.246 -65.9925C531.435 -72.7326 521.694 -74.8506 514.457 -70.7301L444.386 -30.8413ZM516.247 -68.2206C521.946 -71.4642 529.764 -69.7643 533.551 -64.4583C537.338 -59.1523 535.762 -52.1047 530.064 -48.861L459.994 -8.97227C454.295 -5.72863 446.477 -7.42856 442.69 -12.7345C438.903 -18.0405 440.479 -25.0882 446.177 -28.3318L516.247 -68.2206Z" fill="#6E44FF"/>
</svg>
