<svg width="44" height="22" viewBox="0 0 44 22" fill="none" xmlns="http://www.w3.org/2000/svg">
<path d="M0 14.0739V21.6571H7.76746V10.7964H4.70755C4.70755 8.93273 4.94293 7.51892 5.41369 6.61922C5.88444 5.71952 6.63765 5.26967 7.67331 5.14114V0C4.99001 0.192794 3.05991 1.41381 1.83595 3.72733C0.611982 6.04084 0 9.44684 0 14.0739ZM10.6861 14.0739V21.6571H18.4536V10.7964H15.3937C15.3937 8.93273 15.6291 7.51892 16.0998 6.61922C16.5706 5.71952 17.3238 5.26967 18.3595 5.14114V0C15.6761 0.192794 13.7461 1.41381 12.5221 3.72733C11.2981 6.04084 10.6861 9.44684 10.6861 14.0739Z" fill="#F4B897"/>
<path d="M33.282 7.58318V0H25.5146V10.8607H28.5274C28.5274 12.7243 28.292 14.1381 27.8213 15.0378C27.3505 15.9375 26.5973 16.4516 25.6087 16.5159V21.6571C28.2449 21.5285 30.2221 20.3075 31.4461 17.994C32.67 15.7447 33.282 12.2745 33.282 7.58318ZM43.9682 7.58318V0H36.2007V10.8607H39.2135C39.2135 12.7243 38.9782 14.1381 38.5074 15.0378C38.0367 15.9375 37.2834 16.4516 36.2949 16.5159V21.6571C38.9311 21.5285 40.9083 20.3075 42.1322 17.994C43.3562 15.7447 43.9682 12.2745 43.9682 7.58318Z" fill="#F4B897"/>
</svg>
